<svg xmlns="http://www.w3.org/2000/svg" width="189" height="59" viewBox="0 0 189 59">
  <g id="Group_2465" data-name="Group 2465" transform="translate(0 -44)">
    <rect id="Rectangle_2267" data-name="Rectangle 2267" width="189" height="59" rx="4" transform="translate(0 44)" fill="#283c5c"/>
    <path id="Path_1638" data-name="Path 1638" d="M34.966,67.166a8.292,8.292,0,0,1,3.949-6.958,8.492,8.492,0,0,0-6.688-3.615c-2.814-.3-5.542,1.684-6.977,1.684-1.462,0-3.668-1.655-6.046-1.606a8.9,8.9,0,0,0-7.494,4.571c-3.241,5.611-.825,13.858,2.28,18.393,1.553,2.22,3.369,4.7,5.744,4.612,2.325-.1,3.192-1.481,6-1.481,2.78,0,3.595,1.481,6.018,1.426,2.494-.041,4.065-2.232,5.564-4.474a18.336,18.336,0,0,0,2.544-5.182A8.013,8.013,0,0,1,34.966,67.166Z" transform="translate(4.831 5.968)" fill="#fff"/>
    <path id="Path_1639" data-name="Path 1639" d="M25.637,56.445A8.159,8.159,0,0,0,27.506,50.6a8.306,8.306,0,0,0-5.375,2.78,7.767,7.767,0,0,0-1.917,5.633A6.867,6.867,0,0,0,25.637,56.445Z" transform="translate(9.581 3.134)" fill="#fff"/>
    <path id="Path_1640" data-name="Path 1640" d="M54.96,81.246H51.712l-1.779-5.59H43.748l-1.695,5.59H38.891L45.02,62.213H48.8ZM49.4,73.311l-1.609-4.969q-.254-.763-.96-3.587H46.77q-.283,1.215-.9,3.587l-1.581,4.969Z" transform="translate(18.473 8.651)" fill="#fff"/>
    <path id="Path_1641" data-name="Path 1641" d="M64.724,72.6a7.8,7.8,0,0,1-1.891,5.534,5.535,5.535,0,0,1-4.208,1.808,4.209,4.209,0,0,1-3.9-1.948h-.056v7.229h-3.05v-14.8q0-2.2-.114-4.518h2.683l.17,2.174h.056A5.428,5.428,0,0,1,63.1,67.54,7.582,7.582,0,0,1,64.724,72.6Zm-3.106.112a5.667,5.667,0,0,0-.9-3.3,3.124,3.124,0,0,0-2.655-1.356,3.167,3.167,0,0,0-2.047.749,3.474,3.474,0,0,0-1.2,1.963,3.984,3.984,0,0,0-.14.931V73.98a3.664,3.664,0,0,0,.917,2.528,3.043,3.043,0,0,0,2.387,1.031,3.119,3.119,0,0,0,2.682-1.327A5.847,5.847,0,0,0,61.618,72.708Z" transform="translate(24.466 10.27)" fill="#fff"/>
    <path id="Path_1642" data-name="Path 1642" d="M75.427,72.6a7.794,7.794,0,0,1-1.894,5.534,5.53,5.53,0,0,1-4.207,1.808,4.208,4.208,0,0,1-3.9-1.948h-.056v7.229h-3.05v-14.8q0-2.2-.112-4.518h2.682l.17,2.174h.058A5.428,5.428,0,0,1,73.8,67.54,7.582,7.582,0,0,1,75.427,72.6Zm-3.106.112a5.657,5.657,0,0,0-.906-3.3,3.12,3.12,0,0,0-2.654-1.356,3.17,3.17,0,0,0-2.047.749,3.472,3.472,0,0,0-1.2,1.963,4,4,0,0,0-.142.931V73.98a3.676,3.676,0,0,0,.916,2.528,3.046,3.046,0,0,0,2.388,1.031,3.118,3.118,0,0,0,2.682-1.327A5.847,5.847,0,0,0,72.321,72.708Z" transform="translate(29.55 10.27)" fill="#fff"/>
    <path id="Path_1643" data-name="Path 1643" d="M86.94,76a5.071,5.071,0,0,1-1.69,3.953,7.489,7.489,0,0,1-5.185,1.667,9.085,9.085,0,0,1-4.934-1.186l.707-2.543a8.347,8.347,0,0,0,4.409,1.215,4.171,4.171,0,0,0,2.684-.777,2.54,2.54,0,0,0,.959-2.08A2.651,2.651,0,0,0,83.1,74.3a7.348,7.348,0,0,0-2.627-1.472q-5-1.865-5-5.459a4.832,4.832,0,0,1,1.752-3.847,6.9,6.9,0,0,1,4.66-1.5,9.243,9.243,0,0,1,4.319.9l-.763,2.485a7.511,7.511,0,0,0-3.643-.876,3.683,3.683,0,0,0-2.512.792,2.261,2.261,0,0,0-.763,1.723,2.323,2.323,0,0,0,.875,1.863,9.888,9.888,0,0,0,2.769,1.469A9.411,9.411,0,0,1,85.783,72.7,4.862,4.862,0,0,1,86.94,76Z" transform="translate(35.687 8.56)" fill="#fff"/>
    <path id="Path_1644" data-name="Path 1644" d="M92.664,69.2H89.3v6.664q0,2.54,1.779,2.541a5.52,5.52,0,0,0,1.356-.14l.084,2.314a6.885,6.885,0,0,1-2.372.339,3.658,3.658,0,0,1-2.825-1.1,5.411,5.411,0,0,1-1.018-3.7V69.2h-2V66.914h2V64.4l3-.9v3.418h3.36Z" transform="translate(40.045 9.261)" fill="#fff"/>
    <path id="Path_1645" data-name="Path 1645" d="M104.583,72.652a7.535,7.535,0,0,1-1.807,5.2,6.457,6.457,0,0,1-5.028,2.09,6.134,6.134,0,0,1-4.813-2,7.3,7.3,0,0,1-1.794-5.055,7.457,7.457,0,0,1,1.848-5.224,6.408,6.408,0,0,1,4.984-2.034,6.27,6.27,0,0,1,4.859,2.006A7.235,7.235,0,0,1,104.583,72.652Zm-3.165.1a6.185,6.185,0,0,0-.817-3.258,3.017,3.017,0,0,0-2.739-1.643,3.056,3.056,0,0,0-2.8,1.643,6.287,6.287,0,0,0-.819,3.314,6.167,6.167,0,0,0,.819,3.257,3.117,3.117,0,0,0,5.506-.028A6.193,6.193,0,0,0,101.417,72.753Z" transform="translate(43.292 10.27)" fill="#fff"/>
    <path id="Path_1646" data-name="Path 1646" d="M109.339,68.586a5.269,5.269,0,0,0-.962-.084,2.884,2.884,0,0,0-2.485,1.215,4.559,4.559,0,0,0-.763,2.71v7.2h-3.047l.027-9.4q0-2.374-.114-4.32h2.656l.112,2.625h.084a4.678,4.678,0,0,1,1.525-2.174,3.69,3.69,0,0,1,2.2-.735,4.94,4.94,0,0,1,.763.056Z" transform="translate(48.448 10.27)" fill="#fff"/>
    <path id="Path_1647" data-name="Path 1647" d="M120.149,72.126a7.07,7.07,0,0,1-.112,1.382h-9.148a3.983,3.983,0,0,0,1.326,3.108,4.53,4.53,0,0,0,2.993.96,10.113,10.113,0,0,0,3.7-.65l.478,2.118a11.445,11.445,0,0,1-4.6.848,6.664,6.664,0,0,1-5.015-1.879,6.937,6.937,0,0,1-1.822-5.04,7.861,7.861,0,0,1,1.7-5.168,5.841,5.841,0,0,1,4.8-2.2,5.109,5.109,0,0,1,4.491,2.2A7.41,7.41,0,0,1,120.149,72.126Zm-2.907-.791a4.151,4.151,0,0,0-.593-2.344,2.664,2.664,0,0,0-2.431-1.271,2.89,2.89,0,0,0-2.426,1.243,4.527,4.527,0,0,0-.9,2.372Z" transform="translate(51.276 10.261)" fill="#fff"/>
    <path id="Path_1648" data-name="Path 1648" d="M47.806,55.731a4.693,4.693,0,0,1-1.513,3.8,6.014,6.014,0,0,1-3.981,1.18,18.6,18.6,0,0,1-2.193-.112V51.4a16.066,16.066,0,0,1,2.581-.195A5.569,5.569,0,0,1,46.4,52.276,4.316,4.316,0,0,1,47.806,55.731Zm-1.581.041a3.047,3.047,0,0,0-3.4-3.385,6.4,6.4,0,0,0-1.207.1v6.992a7.946,7.946,0,0,0,1.012.043,3.544,3.544,0,0,0,2.656-.957A3.826,3.826,0,0,0,46.224,55.772Z" transform="translate(19.056 3.423)" fill="#fff"/>
    <path id="Path_1649" data-name="Path 1649" d="M53.137,56.383a3.689,3.689,0,0,1-.888,2.552,3.165,3.165,0,0,1-2.469,1.028,3.017,3.017,0,0,1-2.366-.985,3.588,3.588,0,0,1-.881-2.484,3.667,3.667,0,0,1,.909-2.567,3.145,3.145,0,0,1,2.448-1,3.087,3.087,0,0,1,2.387.984A3.565,3.565,0,0,1,53.137,56.383Zm-1.553.049a3.045,3.045,0,0,0-.4-1.6,1.479,1.479,0,0,0-1.345-.807,1.5,1.5,0,0,0-1.375.807,3.1,3.1,0,0,0-.4,1.627,3.05,3.05,0,0,0,.4,1.6,1.514,1.514,0,0,0,1.36.805,1.5,1.5,0,0,0,1.345-.82A3.025,3.025,0,0,0,51.583,56.432Z" transform="translate(22.103 4.241)" fill="#fff"/>
    <path id="Path_1650" data-name="Path 1650" d="M61.774,53.023l-2.109,6.742H58.292l-.875-2.928a21.916,21.916,0,0,1-.541-2.177h-.027a15.657,15.657,0,0,1-.543,2.177l-.928,2.928H53.989l-1.982-6.742h1.54l.763,3.205q.277,1.137.459,2.164h.027q.168-.845.556-2.151l.956-3.218h1.221l.916,3.149q.334,1.15.541,2.22h.041a21.166,21.166,0,0,1,.459-2.22l.819-3.149Z" transform="translate(24.703 4.286)" fill="#fff"/>
    <path id="Path_1651" data-name="Path 1651" d="M65.8,59.81H64.3V55.948q0-1.785-1.36-1.785a1.354,1.354,0,0,0-1.083.491,1.74,1.74,0,0,0-.416,1.156v4h-1.5V55q0-.889-.055-1.929h1.317l.071,1.053h.041a2.15,2.15,0,0,1,.776-.813,2.533,2.533,0,0,1,1.36-.379,2.15,2.15,0,0,1,1.568.611,2.959,2.959,0,0,1,.777,2.233Z" transform="translate(28.448 4.241)" fill="#fff"/>
    <path id="Path_1652" data-name="Path 1652" d="M67.181,60.762h-1.5V50.925h1.5Z" transform="translate(31.2 3.289)" fill="#fff"/>
    <path id="Path_1653" data-name="Path 1653" d="M74.809,56.383a3.689,3.689,0,0,1-.888,2.552,3.167,3.167,0,0,1-2.469,1.028,3.011,3.011,0,0,1-2.366-.985,3.588,3.588,0,0,1-.881-2.484,3.667,3.667,0,0,1,.909-2.567,3.144,3.144,0,0,1,2.447-1,3.09,3.09,0,0,1,2.388.984A3.565,3.565,0,0,1,74.809,56.383Zm-1.556.049a3.044,3.044,0,0,0-.4-1.6,1.477,1.477,0,0,0-1.344-.807,1.5,1.5,0,0,0-1.375.807,3.1,3.1,0,0,0-.4,1.627,3.05,3.05,0,0,0,.4,1.6,1.512,1.512,0,0,0,1.36.805,1.5,1.5,0,0,0,1.344-.82A3.011,3.011,0,0,0,73.252,56.432Z" transform="translate(32.397 4.241)" fill="#fff"/>
    <path id="Path_1654" data-name="Path 1654" d="M79.384,59.81H78.037l-.112-.776h-.041a2.31,2.31,0,0,1-1.969.929,2.031,2.031,0,0,1-1.54-.611,1.913,1.913,0,0,1-.528-1.373,2.1,2.1,0,0,1,1.034-1.888,5.39,5.39,0,0,1,2.907-.637v-.125q0-1.332-1.4-1.332a3.124,3.124,0,0,0-1.758.5l-.3-.985a4.317,4.317,0,0,1,2.313-.583q2.644,0,2.646,2.789V58.2A10.459,10.459,0,0,0,79.384,59.81Zm-1.556-2.317v-1.04q-2.48-.042-2.481,1.36a1.02,1.02,0,0,0,.288.791,1.05,1.05,0,0,0,.732.263,1.508,1.508,0,0,0,.917-.311,1.277,1.277,0,0,0,.519-.8A1.244,1.244,0,0,0,77.828,57.493Z" transform="translate(35.077 4.241)" fill="#fff"/>
    <path id="Path_1655" data-name="Path 1655" d="M85.449,60.762h-1.33l-.069-1.083h-.043a2.239,2.239,0,0,1-2.165,1.236,2.54,2.54,0,0,1-2.025-.957,3.735,3.735,0,0,1-.8-2.484,3.9,3.9,0,0,1,.875-2.649,2.682,2.682,0,0,1,2.081-.944,2.024,2.024,0,0,1,1.9.916h.027V50.925h1.5v8.02Q85.394,59.929,85.449,60.762Zm-1.555-2.844V56.794a2.157,2.157,0,0,0-.041-.472,1.709,1.709,0,0,0-.541-.909,1.475,1.475,0,0,0-1-.367,1.539,1.539,0,0,0-1.319.665,2.862,2.862,0,0,0-.481,1.707,2.659,2.659,0,0,0,.462,1.624,1.54,1.54,0,0,0,1.31.665,1.447,1.447,0,0,0,1.184-.555A1.854,1.854,0,0,0,83.894,57.918Z" transform="translate(37.531 3.289)" fill="#fff"/>
    <path id="Path_1656" data-name="Path 1656" d="M94.194,56.383a3.7,3.7,0,0,1-.888,2.552,3.168,3.168,0,0,1-2.471,1.028,3.024,3.024,0,0,1-2.366-.985,3.588,3.588,0,0,1-.879-2.484,3.666,3.666,0,0,1,.907-2.567,3.146,3.146,0,0,1,2.45-1,3.084,3.084,0,0,1,2.385.984A3.559,3.559,0,0,1,94.194,56.383Zm-1.553.049a3.045,3.045,0,0,0-.4-1.6,1.482,1.482,0,0,0-1.347-.807,1.506,1.506,0,0,0-1.375.807,3.112,3.112,0,0,0-.4,1.627,3.063,3.063,0,0,0,.4,1.6,1.534,1.534,0,0,0,2.708-.015A3.051,3.051,0,0,0,92.64,56.432Z" transform="translate(41.605 4.241)" fill="#fff"/>
    <path id="Path_1657" data-name="Path 1657" d="M99.434,59.81h-1.5V55.948q0-1.785-1.361-1.785a1.349,1.349,0,0,0-1.081.491,1.74,1.74,0,0,0-.416,1.156v4h-1.5V55c0-.593-.016-1.236-.053-1.929h1.316l.071,1.053h.041a2.173,2.173,0,0,1,.776-.813,2.538,2.538,0,0,1,1.361-.379,2.149,2.149,0,0,1,1.566.611,2.953,2.953,0,0,1,.777,2.233Z" transform="translate(44.424 4.241)" fill="#fff"/>
    <path id="Path_1658" data-name="Path 1658" d="M105.692,54.688h-1.651v3.274q0,1.248.873,1.248a2.646,2.646,0,0,0,.668-.069l.038,1.137a3.345,3.345,0,0,1-1.164.168,1.794,1.794,0,0,1-1.386-.541,2.648,2.648,0,0,1-.5-1.819v-3.4h-.985V53.564h.985V52.329l1.471-.444v1.679h1.651Z" transform="translate(48.253 3.745)" fill="#fff"/>
    <path id="Path_1659" data-name="Path 1659" d="M111.637,60.762h-1.5V56.928q0-1.812-1.357-1.813a1.431,1.431,0,0,0-1.431,1.052,1.891,1.891,0,0,0-.069.54v4.055h-1.5V50.925h1.5v4.064h.028a2.268,2.268,0,0,1,2.025-1.108,2.091,2.091,0,0,1,1.541.611,3.068,3.068,0,0,1,.764,2.261Z" transform="translate(50.246 3.289)" fill="#fff"/>
    <path id="Path_1660" data-name="Path 1660" d="M117.23,56.124a3.546,3.546,0,0,1-.056.68H112.68a1.966,1.966,0,0,0,.65,1.527,2.235,2.235,0,0,0,1.472.472,4.957,4.957,0,0,0,1.819-.32l.235,1.041a5.648,5.648,0,0,1-2.263.416,3.264,3.264,0,0,1-2.462-.923,3.4,3.4,0,0,1-.894-2.477A3.862,3.862,0,0,1,112.07,54a2.867,2.867,0,0,1,2.357-1.083,2.507,2.507,0,0,1,2.2,1.083A3.623,3.623,0,0,1,117.23,56.124Zm-1.431-.388a2.015,2.015,0,0,0-.291-1.152,1.308,1.308,0,0,0-1.193-.624,1.423,1.423,0,0,0-1.192.611,2.252,2.252,0,0,0-.444,1.165Z" transform="translate(52.838 4.237)" fill="#fff"/>
  </g>
</svg>
