<svg xmlns="http://www.w3.org/2000/svg" width="170.335" height="40.335" viewBox="0 0 170.335 40.335">
  <defs>
    <style>
      .cls-1 {
        fill: #46c2ff;
      }
    </style>
  </defs>
  <g id="Group_225" data-name="Group 225" transform="translate(-1556 -9966.331)">
    <g id="facebook-logo-in-circular-button-outlined-social-symbol" transform="translate(1556 9966.331)">
      <g id="Group_223" data-name="Group 223">
        <path id="Path_379" data-name="Path 379" class="cls-1" d="M40.335,20.167A20.167,20.167,0,1,0,20.167,40.335,20.168,20.168,0,0,0,40.335,20.167Zm-38.5,0A18.334,18.334,0,1,1,20.167,38.5,18.334,18.334,0,0,1,1.833,20.167Z"/>
        <path id="Path_380" data-name="Path 380" class="cls-1" d="M230.015,153.105v-11.64h3.841l.607-3.857h-4.448v-1.934c0-1.007.33-1.967,1.775-1.967h2.888v-3.85h-4.1c-3.447,0-4.387,2.27-4.387,5.416v2.334h-2.365v3.859h2.365v11.64Z" transform="translate(-209.073 -121.298)"/>
      </g>
    </g>
    <g id="twitter-circular-button" transform="translate(1621 9966.331)">
      <g id="Group_224" data-name="Group 224">
        <path id="Path_381" data-name="Path 381" class="cls-1" d="M160.765,170.057c0-.2,0-.405-.013-.605a9.161,9.161,0,0,0,2.224-2.391,8.539,8.539,0,0,1-2.559.7,4.574,4.574,0,0,0,1.96-2.559,8.557,8.557,0,0,1-2.829,1.091,4.433,4.433,0,0,0-3.252-1.535,4.5,4.5,0,0,0-4.455,4.644,4.951,4.951,0,0,0,.115,1.076,12.547,12.547,0,0,1-9.185-5.075,5,5,0,0,0,1.379,6.366,4.265,4.265,0,0,1-2.019-.618v.06a4.733,4.733,0,0,0,3.575,4.69,4.22,4.22,0,0,1-1.173.16,4.071,4.071,0,0,1-.838-.092,4.529,4.529,0,0,0,4.162,3.317,8.6,8.6,0,0,1-5.533,2.015,8.487,8.487,0,0,1-1.063-.068,12.021,12.021,0,0,0,6.831,2.141C156.284,183.377,160.765,176.245,160.765,170.057Z" transform="translate(-131.949 -153.9)"/>
        <path id="Path_382" data-name="Path 382" class="cls-1" d="M40.335,20.167A20.167,20.167,0,1,0,20.167,40.335,20.168,20.168,0,0,0,40.335,20.167Zm-38.5,0A18.334,18.334,0,1,1,20.167,38.5,18.334,18.334,0,0,1,1.833,20.167Z"/>
      </g>
    </g>
    <g id="instagram" transform="translate(1686 9966.331)">
      <path id="Path_383" data-name="Path 383" class="cls-1" d="M20.167,0C14.718,0,10.955.872,5.914,5.914S0,14.5,0,20.167A20.167,20.167,0,1,0,20.167,0Zm0,38.028a17.86,17.86,0,1,1,17.86-17.86A17.88,17.88,0,0,1,20.167,38.028Z"/>
    </g>
  </g>
</svg>
