<svg xmlns="http://www.w3.org/2000/svg" xmlns:xlink="http://www.w3.org/1999/xlink" width="1109.44" height="1016.386" viewBox="0 0 1109.44 1016.386">
  <defs>
    <clipPath id="clip-path">
      <path id="Path_1" data-name="Path 1" d="M1155.354,354.778l-91.476,8.722L664.824,310.888l-146.28,76.093-81.035,73.1-75.753-29.437V264.64L780.014,54.551l409.677,95.654L1471.2,363.5l-56.466,320.752L1253.425,971.1l-451.4,99.84L448.506,902.147l19.4-38.15,50.634-54.273,274.619,32.361,270.715-70.038,29.994-159.454,35.392-62.147,78.6-48.8,92.223,22.46,18.265-137.127-88.594-63.152Z" transform="translate(-361.756 -54.551)" fill="#fff"/>
    </clipPath>
    <linearGradient id="linear-gradient" x1="0.5" y1="1" x2="0.5" gradientUnits="objectBoundingBox">
      <stop offset="0" stop-color="#bd11fa"/>
      <stop offset="1" stop-color="#46c2ff"/>
    </linearGradient>
  </defs>
  <g id="Mask_Group_1" data-name="Mask Group 1" transform="translate(0 0)" clip-path="url(#clip-path)">
    <path id="Subtraction_1" data-name="Subtraction 1" d="M426.136,0a429.289,429.289,0,0,0-85.881,8.657A423.8,423.8,0,0,0,187.88,72.777,427.381,427.381,0,0,0,33.488,260.265a424.005,424.005,0,0,0-24.83,79.99,430.293,430.293,0,0,0,0,171.763,423.8,423.8,0,0,0,64.12,152.375A427.38,427.38,0,0,0,260.265,818.786a424.008,424.008,0,0,0,79.99,24.83,430.295,430.295,0,0,0,171.763,0A423.8,423.8,0,0,0,664.394,779.5,427.382,427.382,0,0,0,818.786,592.009a424,424,0,0,0,24.83-79.99,430.3,430.3,0,0,0,0-171.763A423.8,423.8,0,0,0,779.5,187.88,427.382,427.382,0,0,0,592.008,33.488a424.008,424.008,0,0,0-79.99-24.83A429.291,429.291,0,0,0,426.136,0Zm0,785.6a362.113,362.113,0,0,1-72.443-7.3A357.49,357.49,0,0,1,225.16,724.205,360.507,360.507,0,0,1,94.927,566.054a357.64,357.64,0,0,1-20.945-67.474,362.963,362.963,0,0,1,0-144.887,357.489,357.489,0,0,1,54.087-128.533A360.507,360.507,0,0,1,286.219,94.928a357.651,357.651,0,0,1,67.474-20.945,362.963,362.963,0,0,1,144.887,0,357.489,357.489,0,0,1,128.533,54.087A360.5,360.5,0,0,1,757.346,286.22a357.644,357.644,0,0,1,20.945,67.474,362.96,362.96,0,0,1,0,144.887A357.49,357.49,0,0,1,724.2,627.114,360.5,360.5,0,0,1,566.054,757.347a357.649,357.649,0,0,1-67.474,20.945A362.117,362.117,0,0,1,426.136,785.6Z" transform="translate(841.051 939.493) rotate(180)" fill="url(#linear-gradient)" style="mix-blend-mode: lighten;isolation: isolate"/>
  </g>
</svg>
